<svg viewBox="0 0 497 497" xmlns="http://www.w3.org/2000/svg">
  <path
    d="m485.286 284.743c0 144.698-473.58 144.698-473.58 0 0-105.144 106.014-190.38 236.79-190.38s236.79 85.236 236.79 190.38z"
    fill="#cf7a15"
  />
  <path
    d="m404.742 123.656c-4.445-2.893-10.622-1.723-13.249 2.878-28.149 49.3-72.052 141.361-111.045 134.876-25.726-4.279 17.166-125.329 32.389-164.039 2.177-5.535-1.208-11.701-7.063-12.811-16.906-3.208-34.478-5.029-52.521-5.302-3.019 1.705-5.413 3.056-8.432 4.761-33.474 57.76-93.319 174.036-127.307 161.702-15.722-5.705-.441-85.026 14.089-125.2 2.914-8.056-5.496-15.566-13.185-11.761-71.046 35.162-118.418 98.257-118.418 170.254 0 190.631 499.122 179.221 496.993 0-.745-62.741-35.98-118.73-92.251-155.358z"
    fill="#f0a346"
  />
  <g fill="#eb8f21">
    <path
      d="m265.775 84.56c5.854 1.111 9.24 7.276 7.063 12.811-15.223 38.71-18.848 101.24-14.671 122.128 4 20 14.412 28.494 14.412 28.494-2.742-33.372 27.89-119.173 40.258-150.623 2.177-5.535-1.208-11.701-7.063-12.811-16.906-3.208-34.478-5.029-52.521-5.302-1.642.927-3.099 1.75-4.573 2.582 5.766.755 11.47 1.654 17.095 2.721z"
    />
    <path
      d="m111.074 229.863c-1.818-26.451 9.567-79.033 20.529-109.341 2.914-8.056-5.495-15.566-13.185-11.761-9.966 4.932-19.465 10.414-28.433 16.393-11.152 67.679 18.848 104.346 21.089 104.709z"
    />
    <path
      d="m404.742 123.656c-4.445-2.893-10.622-1.723-13.249 2.878-2.116 3.706-4.322 7.657-6.607 11.785 44.419 36.109 71.456 85.819 72.108 140.694 1.024 86.184-113.867 133.554-233.426 138.32 132.507 5.315 274.564-42.528 273.426-138.32-.746-62.74-35.981-118.729-92.252-155.357z"
    />
  </g>
</svg>
